<svg width="1800" height="600" viewBox="0 0 1800 600" fill="none" xmlns="http://www.w3.org/2000/svg">
<rect width="1800" height="600" fill="white"/>
<path d="M700.08 215H668.34C667.267 198.287 655.767 189.93 633.84 189.93C625.1 189.93 618.123 191.693 612.91 195.22C607.85 198.747 605.32 203.5 605.32 209.48C605.32 215.307 607.467 219.677 611.76 222.59C616.053 225.503 624.333 228.11 636.6 230.41L662.36 235.24C677.54 238.153 688.58 243.137 695.48 250.19C702.38 257.243 705.83 267.21 705.83 280.09C705.83 297.723 699.083 311.14 685.59 320.34C673.937 328.467 658.22 332.53 638.44 332.53C615.9 332.53 598.727 327.317 586.92 316.89C576.647 307.843 571.05 295.27 570.13 279.17H603.02C604.247 296.65 616.59 305.39 640.05 305.39C650.477 305.39 658.603 303.55 664.43 299.87C670.41 296.037 673.4 290.823 673.4 284.23C673.4 277.79 671.023 272.807 666.27 269.28C661.67 265.753 653.697 262.917 642.35 260.77L619.35 256.4C602.637 253.333 590.677 248.503 583.47 241.91C576.417 235.163 572.89 225.503 572.89 212.93C572.89 195.91 579.1 183.03 591.52 174.29C602.253 166.623 616.82 162.79 635.22 162.79C657.453 162.79 674.167 167.85 685.36 177.97C695.02 186.863 699.927 199.207 700.08 215ZM822.963 165.32H857.003V274.34C857.003 292.28 851.636 306.08 840.903 315.74C828.636 326.933 812.23 332.53 791.683 332.53C771.136 332.53 754.73 326.933 742.463 315.74C731.73 306.08 726.363 292.28 726.363 274.34V165.32H760.173V274.34C760.173 293.813 770.676 303.55 791.683 303.55C812.536 303.55 822.963 293.813 822.963 274.34V165.32ZM919.762 264.68V330H885.952V165.32H974.272C988.226 165.32 998.882 169.077 1006.24 176.59C1014.52 185.023 1018.66 196.14 1018.66 209.94C1018.66 229.873 1009.31 243.443 990.602 250.65C1001.18 254.79 1007.62 259.927 1009.92 266.06C1011.61 270.507 1012.84 285.303 1013.6 310.45C1013.76 316.737 1016.13 321.183 1020.73 323.79V330H984.392C981.019 323.713 979.332 314.437 979.332 302.17C979.332 299.103 979.409 295.347 979.562 290.9C979.562 287.833 979.562 285.61 979.562 284.23C979.562 271.197 972.586 264.68 958.632 264.68H919.762ZM919.762 236.39H960.702C969.289 236.39 975.269 235.01 978.642 232.25C982.782 228.723 984.852 222.897 984.852 214.77C984.852 206.95 982.782 201.353 978.642 197.98C975.116 195.067 969.136 193.61 960.702 193.61H919.762V236.39ZM1077.55 259.16V301.71H1166.79V330H1043.74V165.32H1162.65V193.61H1077.55V230.87H1156.44V259.16H1077.55ZM1222.99 259.16V330H1189.18V165.32H1304.87V193.61H1222.99V230.87H1295.21V259.16H1222.99ZM1398.38 269.05V330H1364.57V269.05L1309.83 165.32H1347.55L1381.13 238L1412.64 165.32H1450.36L1398.38 269.05ZM1451.88 301.48C1456.02 301.48 1459.54 302.937 1462.46 305.85C1465.37 308.61 1466.83 312.06 1466.83 316.2C1466.83 320.34 1465.37 323.867 1462.46 326.78C1459.54 329.693 1456.02 331.15 1451.88 331.15C1447.89 331.15 1444.44 329.693 1441.53 326.78C1438.61 323.867 1437.16 320.34 1437.16 316.2C1437.16 312.06 1438.54 308.61 1441.3 305.85C1444.21 302.937 1447.74 301.48 1451.88 301.48ZM1584.26 296.88H1522.62L1511.58 330H1477.08L1535.5 165.32H1572.99L1630.03 330H1595.07L1584.26 296.88ZM1575.06 268.59L1553.67 204.19L1532.05 268.59H1575.06ZM1676.03 165.32V330H1642.22V165.32H1676.03Z" fill="#5864F8"/>
<path d="M1054.47 442.57V446H1039.77C1038.79 444.759 1038.27 442.995 1038.2 440.708C1034.61 444.955 1029.38 447.078 1022.52 447.078C1017.49 447.078 1013.44 445.543 1010.37 442.472C1007.89 439.989 1006.65 436.559 1006.65 432.182C1006.65 425.649 1009.26 421.01 1014.49 418.266C1016.71 417.09 1021.12 415.914 1027.72 414.738L1038.3 412.778L1038.2 409.054C1038.14 405.591 1035.52 403.86 1030.36 403.86C1027.03 403.86 1024.68 404.383 1023.31 405.428C1022 406.408 1021.18 408.237 1020.86 410.916H1007.92C1008.7 398.96 1016.09 392.982 1030.07 392.982C1037.78 392.982 1043.33 394.354 1046.73 397.098C1049.8 399.711 1051.33 403.664 1051.33 408.956V437.964C1051.33 440.316 1052.38 441.851 1054.47 442.57ZM1038.3 420.912L1028.4 423.166C1025.59 423.819 1023.5 424.767 1022.13 426.008C1020.82 427.249 1020.17 428.785 1020.17 430.614C1020.17 434.338 1022.59 436.2 1027.42 436.2C1034.41 436.2 1038.01 432.378 1038.2 424.734L1038.3 420.912ZM1077.29 375.832V446H1063.77V375.832H1077.29ZM1143.29 446H1129.37L1121.53 409.348L1113.3 446H1099.48L1084.78 394.06H1098.8L1107.03 430.418L1114.87 394.06H1128.39L1136.14 430.418L1144.07 394.06H1157.99L1143.29 446ZM1209.6 442.57V446H1194.9C1193.92 444.759 1193.4 442.995 1193.34 440.708C1189.74 444.955 1184.52 447.078 1177.66 447.078C1172.63 447.078 1168.58 445.543 1165.5 442.472C1163.02 439.989 1161.78 436.559 1161.78 432.182C1161.78 425.649 1164.39 421.01 1169.62 418.266C1171.84 417.09 1176.25 415.914 1182.85 414.738L1193.43 412.778L1193.34 409.054C1193.27 405.591 1190.66 403.86 1185.5 403.86C1182.16 403.86 1179.81 404.383 1178.44 405.428C1177.13 406.408 1176.32 408.237 1175.99 410.916H1163.05C1163.84 398.96 1171.22 392.982 1185.2 392.982C1192.91 392.982 1198.47 394.354 1201.86 397.098C1204.93 399.711 1206.47 403.664 1206.47 408.956V437.964C1206.47 440.316 1207.51 441.851 1209.6 442.57ZM1193.43 420.912L1183.54 423.166C1180.73 423.819 1178.64 424.767 1177.26 426.008C1175.96 427.249 1175.3 428.785 1175.3 430.614C1175.3 434.338 1177.72 436.2 1182.56 436.2C1189.55 436.2 1193.14 432.378 1193.34 424.734L1193.43 420.912ZM1250.56 394.06H1264.38L1243.01 455.408C1241.51 459.785 1239.52 462.791 1237.03 464.424C1234.55 466.123 1230.86 466.972 1225.96 466.972C1221.45 466.972 1218.32 466.384 1216.55 465.208L1218.61 456.094C1220.96 456.682 1222.92 456.976 1224.49 456.976C1226.78 456.976 1228.74 456.192 1230.37 454.624C1232 453.121 1232.82 451.325 1232.82 449.234V448.156L1213.51 394.06H1228.31L1239.88 431.888L1250.56 394.06ZM1315.42 409.348H1301.7C1301.64 407.257 1300.89 405.787 1299.45 404.938C1298.01 404.023 1295.53 403.566 1292 403.566C1286.84 403.566 1284.26 405.069 1284.26 408.074C1284.26 409.838 1285.83 411.145 1288.96 411.994L1306.02 416.796C1312.81 418.691 1316.21 423.003 1316.21 429.732C1316.21 435.024 1314.15 439.303 1310.03 442.57C1306.18 445.575 1300.63 447.078 1293.37 447.078C1284.49 447.078 1278.12 445.771 1274.26 443.158C1270.48 440.675 1268.45 436.657 1268.19 431.104H1281.61C1282.01 433.26 1282.92 434.697 1284.36 435.416C1285.86 436.135 1288.61 436.494 1292.59 436.494C1299.32 436.494 1302.68 434.893 1302.68 431.692C1302.68 429.797 1301.18 428.393 1298.18 427.478L1282.1 422.578C1277.99 421.337 1275.18 419.899 1273.68 418.266C1271.72 416.241 1270.74 413.497 1270.74 410.034C1270.74 404.35 1272.89 399.973 1277.2 396.902C1280.99 394.289 1285.96 392.982 1292.1 392.982C1299.55 392.982 1305.43 394.648 1309.74 397.98C1313.46 400.92 1315.36 404.709 1315.42 409.348ZM1343.7 375.832H1357.22V399.94C1360.42 395.301 1365.16 392.982 1371.43 392.982C1378.42 392.982 1383.94 395.791 1387.99 401.41C1391.59 406.375 1393.38 412.582 1393.38 420.03C1393.38 428.523 1391.06 435.318 1386.43 440.414C1382.37 444.857 1377.38 447.078 1371.43 447.078C1365.09 447.078 1360.36 444.791 1357.22 440.218V446H1343.7V375.832ZM1368.49 404.252C1365.03 404.252 1362.25 405.689 1360.16 408.564C1358.14 411.373 1357.12 415.228 1357.12 420.128C1357.12 424.963 1358.14 428.785 1360.16 431.594C1362.19 434.403 1364.96 435.808 1368.49 435.808C1371.95 435.808 1374.7 434.403 1376.72 431.594C1378.81 428.719 1379.86 424.897 1379.86 420.128C1379.86 415.293 1378.81 411.439 1376.72 408.564C1374.7 405.689 1371.95 404.252 1368.49 404.252ZM1448.02 423.558H1413.13C1413.33 427.739 1413.98 430.712 1415.09 432.476C1416.99 435.351 1419.96 436.788 1424.01 436.788C1429.04 436.788 1432.4 434.697 1434.1 430.516H1447.43C1445.93 435.612 1442.99 439.663 1438.61 442.668C1434.3 445.608 1429.24 447.078 1423.42 447.078C1415.52 447.078 1409.44 444.432 1405.19 439.14C1401.47 434.501 1399.61 428.393 1399.61 420.814C1399.61 411.602 1402.02 404.481 1406.86 399.45C1411.11 395.138 1416.69 392.982 1423.62 392.982C1428.91 392.982 1433.55 394.289 1437.53 396.902C1441.52 399.515 1444.36 403.174 1446.06 407.878C1447.43 411.537 1448.12 415.947 1448.12 421.108C1448.12 421.761 1448.08 422.578 1448.02 423.558ZM1434.01 414.64C1433.35 407.061 1429.86 403.272 1423.52 403.272C1417.57 403.272 1414.18 407.061 1413.33 414.64H1434.01ZM1518.79 409.348H1505.07C1505.01 407.257 1504.26 405.787 1502.82 404.938C1501.38 404.023 1498.9 403.566 1495.37 403.566C1490.21 403.566 1487.63 405.069 1487.63 408.074C1487.63 409.838 1489.2 411.145 1492.33 411.994L1509.39 416.796C1516.18 418.691 1519.58 423.003 1519.58 429.732C1519.58 435.024 1517.52 439.303 1513.4 442.57C1509.55 445.575 1504 447.078 1496.74 447.078C1487.86 447.078 1481.49 445.771 1477.63 443.158C1473.84 440.675 1471.82 436.657 1471.56 431.104H1484.98C1485.38 433.26 1486.29 434.697 1487.73 435.416C1489.23 436.135 1491.97 436.494 1495.96 436.494C1502.69 436.494 1506.05 434.893 1506.05 431.692C1506.05 429.797 1504.55 428.393 1501.55 427.478L1485.47 422.578C1481.36 421.337 1478.55 419.899 1477.05 418.266C1475.09 416.241 1474.11 413.497 1474.11 410.034C1474.11 404.35 1476.26 399.973 1480.57 396.902C1484.36 394.289 1489.33 392.982 1495.47 392.982C1502.92 392.982 1508.8 394.648 1513.11 397.98C1516.83 400.92 1518.73 404.709 1518.79 409.348ZM1575.04 446H1561.61V438.65C1557.95 444.269 1552.76 447.078 1546.03 447.078C1540.08 447.078 1535.57 445.314 1532.5 441.786C1529.89 438.715 1528.58 434.501 1528.58 429.144V394.06H1542.11V426.302C1542.11 432.509 1544.98 435.612 1550.73 435.612C1554 435.612 1556.61 434.697 1558.57 432.868C1560.6 431.039 1561.61 428.556 1561.61 425.42V394.06H1575.04V446ZM1587.84 394.06H1601.36V403.958C1603.06 396.641 1607.89 392.982 1615.86 392.982C1617.11 392.982 1617.99 392.982 1618.51 392.982L1618.61 406.31C1616.97 405.983 1615.28 405.82 1613.51 405.82C1609.07 405.82 1606 406.637 1604.3 408.27C1602.34 410.099 1601.36 413.399 1601.36 418.168V446H1587.84V394.06ZM1670.43 423.558H1635.55C1635.74 427.739 1636.4 430.712 1637.51 432.476C1639.4 435.351 1642.37 436.788 1646.42 436.788C1651.45 436.788 1654.82 434.697 1656.52 430.516H1669.85C1668.34 435.612 1665.4 439.663 1661.03 442.668C1656.71 445.608 1651.65 447.078 1645.84 447.078C1637.93 447.078 1631.85 444.432 1627.61 439.14C1623.88 434.501 1622.02 428.393 1622.02 420.814C1622.02 411.602 1624.44 404.481 1629.27 399.45C1633.52 395.138 1639.11 392.982 1646.03 392.982C1651.32 392.982 1655.96 394.289 1659.95 396.902C1663.93 399.515 1666.78 403.174 1668.47 407.878C1669.85 411.537 1670.53 415.947 1670.53 421.108C1670.53 421.761 1670.5 422.578 1670.43 423.558ZM1656.42 414.64C1655.77 407.061 1652.27 403.272 1645.93 403.272C1639.99 403.272 1636.59 407.061 1635.74 414.64H1656.42ZM1686.96 433.848C1688.72 433.848 1690.22 434.469 1691.46 435.71C1692.71 436.886 1693.33 438.356 1693.33 440.12C1693.33 441.884 1692.71 443.387 1691.46 444.628C1690.22 445.869 1688.72 446.49 1686.96 446.49C1685.26 446.49 1683.79 445.869 1682.55 444.628C1681.3 443.387 1680.68 441.884 1680.68 440.12C1680.68 438.356 1681.27 436.886 1682.45 435.71C1683.69 434.469 1685.19 433.848 1686.96 433.848Z" fill="#5864F8"/>
<path d="M467.556 449.107C428.127 493.212 299.893 524.809 299.893 524.809C299.893 524.809 171.668 493.212 132.239 449.107C103.603 417.057 110.965 381.387 110.965 381.387V153.548C110.965 120.158 141.365 93.1333 178.847 93.1333H420.917C458.422 93.1333 488.825 120.158 488.825 153.548V381.387C488.825 381.387 496.161 417.057 467.556 449.107Z" fill="#5864F8"/>
<path d="M110.967 381.389C110.967 381.389 103.6 417.057 132.236 449.105C171.616 493.155 299.554 524.72 299.888 524.802V93.1309H178.844C141.365 93.1309 110.967 120.161 110.967 153.548V381.389Z" fill="#303DE0"/>
<path d="M218.199 278.034L290.927 342.772L414.839 234.076L289.132 291.822L218.199 278.034Z" fill="#F7F9F8"/>
<path d="M515.491 402.379C515.372 403.565 515.236 404.774 515.069 406.021C512.208 427.243 502.91 447.184 488.179 463.689C468.968 485.18 432.196 505.873 378.875 525.207C340.899 538.979 308.291 547.065 306.921 547.402L299.893 549.135L292.866 547.402C291.498 547.065 258.89 538.979 220.915 525.207C167.599 505.873 130.829 485.18 111.631 463.705C96.8741 447.191 87.5679 427.245 84.7102 406.017C84.543 404.771 84.4093 403.565 84.2884 402.379H79C79.1312 403.741 79.2855 405.138 79.481 406.575C82.4519 428.667 92.1438 449.43 107.507 466.624C127.275 488.736 164.761 509.909 218.926 529.551C257.26 543.452 290.083 551.582 291.462 551.921L299.893 554L308.325 551.921C309.704 551.582 342.535 543.45 380.863 529.551C435.03 509.909 472.525 488.731 492.302 466.606C507.643 449.421 517.322 428.664 520.298 406.58C520.493 405.14 520.65 403.741 520.779 402.379H515.491ZM84.6253 198.186V153.55C84.6253 107.307 126.891 69.6889 178.847 69.6889H420.917C472.885 69.6889 515.164 107.307 515.164 153.55V198.186H520.432V153.55C520.432 104.723 475.789 65 420.917 65H178.847C123.987 65 79.3575 104.723 79.3575 153.55V198.186H84.6253Z" fill="#5864F8"/>
<path d="M515 403V198H520.5V403H515Z" fill="#5864F8"/>
<path d="M79 403V198H84.5V403H79Z" fill="#5864F8"/>
</svg>
